<?xml version="1.0" encoding="UTF-8"?>
<svg id="Capa_1" data-name="Capa 1" xmlns="http://www.w3.org/2000/svg" viewBox="0 0 818.41 457.01">
  <path d="M71.48,433.41c8.32,7.98,25.88,7.22,35.5-.98,12.32-10.49,13.47-24.34,11.8-38.83-1.41-12.22-3.82-24.33-5.55-36.52-.51-3.6-1.96-4.29-5.34-3.68-19.8,3.58-38.82,1.5-56.52-8.63-24.45-13.98-38.71-35.23-43.14-62.79-5.4-33.53,6.63-61.72,27.87-86.93,11.85-14.06,25.18-26.57,38.87-38.73,3.17-2.81,3.88-5.51,2.81-9.58-5.22-19.71-8.49-39.75-7.61-60.21,.97-22.4,5.05-44.02,18.29-62.9,3.17-4.52,6.87-8.58,11.16-12.06,7.97-6.48,18.2-5.49,24.92,2.32,10.5,12.22,14.73,27.13,17.55,42.44,4.98,27.03,2.49,53.37-8.67,78.7-7.38,16.76-18.77,30.61-31.54,43.39-3.39,3.39-4.86,6.39-3.85,11.36,2.49,12.22,4.37,24.57,6.27,36.91,.52,3.41,2.48,3.92,5.23,3.85,7.42-.19,14.62,.85,21.45,3.85,16.56,7.28,25.75,20.25,29.72,37.61,6.74,29.5-6.3,59.91-32.57,74.69-2.89,1.63-3.48,3.36-2.94,6.4,2.32,13.28,4.65,26.56,6.55,39.9,1.91,13.38,.81,26.47-7.4,37.79-10.88,15.01-26.19,20.59-44.22,18.48-14.84-1.74-26.78-8.64-34.47-21.96-8.73-15.11-4.94-32.36,8.89-40.17,10.07-5.69,25.03-2.6,32.16,6.63,7.64,9.91,7.12,23.07-1.39,31.99-3.75,3.92-9.15,5.12-13.83,7.64ZM30.26,282.61c-.22,2.61,.27,7.06,1.1,11.5,7.2,38.61,39.94,56.17,74.44,49,3.95-.82,4.62-2.74,4.01-6.36-3.98-23.62-7.87-47.26-11.62-70.92-.57-3.59-2.07-3.98-5.08-2.92-5.89,2.08-10.25,6.13-14.18,10.71-10.22,11.91-8.81,31.66,2.85,42,2.04,1.81,4.46,2.88,6.8,4.14,1.02,.55,2.29,1.17,2,2.55-.29,1.41-1.7,1.36-2.87,1.43-3.09,.17-5.91-.84-8.66-2.07-15.87-7.09-24.81-26.18-21.55-45.35,3.21-18.86,13.68-32.14,30.58-40.54,2.68-1.33,4.55-2.64,3.94-5.94-2-10.8-3.98-21.6-5.96-32.4-.43-2.37-1.29-3.51-3.51-1.38-12.36,11.86-25.63,22.83-35.76,36.87-10.3,14.28-16.55,29.93-16.54,49.69Zm59.29-140.36c18.42-16.9,32.81-34.8,36.99-59.1,1.95-11.33,2.39-22.54-2.36-33.32-4.15-9.41-11.62-10.45-18.17-2.71-3.34,3.94-6.29,8.15-8.8,12.7-7.19,13-9.67,27.19-10.61,41.73-.86,13.33,1.11,26.48,2.96,40.71Zm52.61,154.12c-.49-5.46-1-11.43-3.02-17.12-4.15-11.73-13.3-19-23.99-19.55-4.11-.21-5.69,.68-4.89,5.22,3.82,21.77,7.37,43.58,11.06,65.37,.29,1.73,.09,4.05,2.28,4.56,1.74,.41,2.97-1.23,4.17-2.36,10.27-9.65,13.56-22.13,14.4-36.12Z"/>
  <path d="M257.16,303.35c-16.48,16.49-34.79,20.54-55.3,12.66-12.83-4.93-19.56-14.95-20.71-28.69-1.25-15,4.9-25.72,18.35-32.43,6.54-3.27,13.55-4.79,20.7-5.19,9.96-.57,19.92-1.53,29.93-1.18,5.67,.2,6.24-.62,5.98-6.35-.82-18.51-20.23-28.96-36.41-19.62-3.98,2.3-6.43,5.83-7.72,10.07-.95,3.13-2.78,4.13-5.88,4.04-5.66-.16-11.33,0-17-.08-5.63-.08-6.31-1.13-4.71-6.71,2.99-10.46,9.46-18.3,18.55-23.93,17.49-10.82,49.52-10.36,65.15,3.51,8.85,7.86,12.56,17.87,13.19,29.2,1.33,23.8,.82,47.63,.85,71.45,0,6.38-.2,6.56-6.36,6.6-4,.03-8,.03-12,0-6.43-.06-6.57-.22-6.63-6.9-.01-1.81,0-3.62,0-6.44Zm-14.94-37.75c-8.51-.08-16.97,.25-24.99,3.51-7.53,3.07-10.63,8.23-9.89,15.96,.68,7.1,5.11,11.96,12.8,13.18,5.91,.93,11.93,.99,17.81-.59,11.82-3.18,17.55-10.33,18.15-22.53,.46-9.44,.35-9.56-8.9-9.54-1.66,0-3.32,0-4.98,0Z"/>
  <path d="M501.59,266.77c-11.82,0-23.65,.2-35.47-.09-4.5-.11-5.29,1.58-4.82,5.56,1.45,12.39,9.33,22.12,20.9,25.38,12.86,3.62,25.92-.17,33.21-10.17,2.16-2.96,4.39-4.11,7.87-3.95,4.32,.2,8.66,.01,12.99,.06,5.98,.06,6.39,.72,3.9,6.34-5.31,11.99-14.19,20.39-26.16,25.5-22.14,9.46-49.08,3.91-65.19-13.66-8.74-9.53-13.12-21.14-14.27-33.93-1.56-17.42,.82-34.09,12.03-48.19,15.31-19.26,35.68-25.02,58.97-19.03,21.8,5.6,32.74,21.46,36.64,42.86,1.11,6.1,1.1,12.24,1.04,18.41-.04,3.64-1.57,4.97-5.17,4.94-12.16-.12-24.31-.05-36.47-.04Zm-12.15-18.21c7.5,0,15,.01,22.5,0,5.62-.01,5.99-.48,4.98-6.04-2.63-14.48-13.14-22.92-28.37-22.75-13.39,.15-24.77,10.16-27,23.61-.61,3.67,.53,5.28,4.39,5.22,7.83-.13,15.66-.04,23.5-.03Z"/>
  <path d="M811.42,258.15c-.1,31.73-19.1,55.47-48.06,60.8-32.36,5.96-61.02-13.23-67.77-45.54-3.31-15.86-1.8-31.26,6.34-45.47,11.22-19.6,28.45-29.26,50.98-29.42,23.11-.17,40.24,10.22,51.59,30.07,5.32,9.3,7.37,19.57,6.91,29.57Zm-90.07,1.94c-.38,5.1,.76,10.95,2.79,16.65,4.51,12.68,13.72,19.64,26.37,19.92,15.36,.35,25.26-5.57,30.29-18.76,4.9-12.84,4.62-25.91-.83-38.45-8.97-20.63-36.83-24.44-50.67-7.07-6.17,7.75-8.14,16.97-7.96,27.71Z"/>
  <path d="M409.43,201.57c3.33,0,6.66,.1,9.99-.02,3.33-.13,4.95,1.17,4.84,4.65-.13,3.99-.14,7.99-.02,11.99,.11,3.53-1.64,4.63-4.91,4.58-6.82-.11-13.65-.03-20.48-.03-2.33,0-4.2,.19-4.19,3.44,0,16.3-.23,32.6-.25,48.9-.03,17.03,6.24,22.45,23.23,20.31,6.44-.81,6.51-.75,6.58,5.54,.03,2.66,.02,5.33,.02,7.99-.01,7.35,0,7.57-7.06,8.42-7.11,.86-14.35,1.04-21.42,.05-16.07-2.25-25.43-13.36-25.56-30-.15-19.31-.02-38.63-.04-57.94,0-6.64-.08-6.69-6.66-6.73-14.44-.07-14.26-.07-14.42-14.6-.05-4.92,1.31-7.14,6.48-6.62,3.3,.33,6.66-.06,9.98,.08,3.49,.15,4.71-1.46,4.65-4.8-.12-6.66,.1-13.32-.07-19.98-.09-3.83,1.35-5.48,5.25-5.33,4.82,.18,9.66,.18,14.48-.01,3.85-.16,5.2,1.4,5.38,5.24,.34,7-1.12,13.91-.5,20.93,.27,3.05,1.28,4.09,4.21,3.96,3.49-.16,6.99-.04,10.49-.03Z"/>
  <path d="M333.24,234.91c0,24.99,0,49.98-.01,74.96,0,6.66-.17,6.79-6.64,6.82-4.66,.02-9.34-.18-13.99,.04-4.18,.2-5.5-1.59-5.47-5.62,.13-19.32,.06-38.65,.06-57.97,0-31.32-.01-62.64,0-93.96,0-6.31,.25-6.53,6.4-6.57,4.66-.03,9.34,.2,13.99-.07,4.45-.26,5.75,1.66,5.72,5.89-.13,23.65-.06,47.31-.05,70.97,0,1.83,0,3.66,0,5.5Z"/>
  <path d="M589.16,217.68c10.24-14.67,23.92-18.34,39.69-17.17,3.13,.23,4.54,1.32,4.49,4.5-.1,5.33-.09,10.66,0,16,.05,3.14-.88,4.45-4.42,4.02-5.57-.68-11.1-1.58-16.87-.52-14.07,2.58-22.53,11.81-22.68,26.13-.2,18.83-.1,37.66-.12,56.49q-.01,9.62-9.38,9.6c-3.83,0-7.67-.16-11.5,.02-3.88,.19-5.31-1.42-5.27-5.29,.14-13.16,.05-26.33,.05-39.49,0-21.33,.14-42.66-.11-63.99-.06-5.14,1.71-6.82,6.66-6.48,4.98,.34,9.99,.16,14.99,.06,3.18-.06,4.58,1.33,4.5,4.49-.08,3.46-.02,6.92-.02,11.64Z"/>
  <path d="M674.33,259.44c0,16.99-.13,33.99,.08,50.97,.06,4.69-1.35,6.73-6.24,6.38-4.48-.32-8.99-.05-13.49-.08-6.28-.04-6.48-.23-6.49-6.46-.02-29.82-.02-59.64-.02-89.46,0-4.83,.09-9.66-.02-14.49-.08-3.34,1.24-4.88,4.71-4.79,5.16,.14,10.34,.24,15.49-.04,4.52-.25,6.15,1.36,6.09,5.99-.21,17.32-.08,34.65-.08,51.97h-.02Z"/>
  <path d="M662.47,185.81c-9.89,.05-17.22-7.04-17.35-16.79-.13-9.75,7.41-17.35,17.33-17.47,9.36-.11,17.69,7.85,17.63,16.82-.07,9.58-7.96,17.39-17.61,17.44Z"/>
</svg>