<?xml version="1.0" encoding="UTF-8"?>
<svg id="Capa_2" data-name="Capa 2" xmlns="http://www.w3.org/2000/svg" xmlns:xlink="http://www.w3.org/1999/xlink" viewBox="0 0 155.51 442.39">
  <defs>
    <style>
      .cls-1 {
        fill: url(#Degradado_sin_nombre);
      }
    </style>
    <linearGradient id="Degradado_sin_nombre" data-name="Degradado sin nombre" x1="77.76" y1="431.22" x2="77.76" y2="20.45" gradientTransform="translate(0 442.69) scale(1 -1)" gradientUnits="userSpaceOnUse">
      <stop offset=".18" stop-color="#fe35ad"/>
      <stop offset=".23" stop-color="#f33bb0"/>
      <stop offset=".31" stop-color="#d74dba"/>
      <stop offset=".42" stop-color="#aa6aca"/>
      <stop offset=".55" stop-color="#6c92e1"/>
      <stop offset=".7" stop-color="#1dc5fd"/>
      <stop offset=".71" stop-color="#1ac8ff"/>
    </linearGradient>
  </defs>
  <g id="Capa_1-2" data-name="Capa 1">
    <path class="cls-1" d="M64.54,426.11c8.32,7.98,25.88,7.22,35.5-.98,12.32-10.49,13.47-24.34,11.8-38.83-1.41-12.22-3.82-24.33-5.55-36.52-.51-3.6-1.96-4.29-5.34-3.68-19.8,3.58-38.82,1.5-56.52-8.63-24.45-13.98-38.71-35.23-43.14-62.79-5.4-33.53,6.63-61.72,27.87-86.93,11.85-14.06,25.18-26.57,38.87-38.73,3.17-2.81,3.88-5.51,2.81-9.58-5.22-19.71-8.49-39.75-7.61-60.21,.97-22.4,5.05-44.02,18.29-62.9,3.17-4.52,6.87-8.58,11.16-12.06,7.97-6.48,18.2-5.49,24.92,2.32,10.5,12.22,14.73,27.13,17.55,42.44,4.98,27.03,2.49,53.37-8.67,78.7-7.38,16.76-18.77,30.61-31.54,43.39-3.39,3.39-4.86,6.39-3.85,11.36,2.49,12.22,4.37,24.57,6.27,36.91,.52,3.41,2.48,3.92,5.23,3.85,7.42-.19,14.62,.85,21.45,3.85,16.56,7.28,25.75,20.25,29.72,37.61,6.74,29.5-6.3,59.91-32.57,74.69-2.89,1.63-3.48,3.36-2.94,6.4,2.32,13.28,4.65,26.56,6.55,39.9,1.91,13.38,.81,26.47-7.4,37.79-10.88,15.01-26.19,20.59-44.22,18.48-14.84-1.74-26.78-8.64-34.47-21.96-8.73-15.11-4.94-32.36,8.89-40.17,10.07-5.69,25.03-2.6,32.16,6.63,7.64,9.91,7.12,23.07-1.39,31.99-3.75,3.92-9.15,5.12-13.83,7.64v.02ZM23.32,275.31c-.22,2.61,.27,7.06,1.1,11.5,7.2,38.61,39.94,56.17,74.44,49,3.95-.82,4.62-2.74,4.01-6.36-3.98-23.62-7.87-47.26-11.62-70.92-.57-3.59-2.07-3.98-5.08-2.92-5.89,2.08-10.25,6.13-14.18,10.71-10.22,11.91-8.81,31.66,2.85,42,2.04,1.81,4.46,2.88,6.8,4.14,1.02,.55,2.29,1.17,2,2.55-.29,1.41-1.7,1.36-2.87,1.43-3.09,.17-5.91-.84-8.66-2.07-15.87-7.09-24.81-26.18-21.55-45.35,3.21-18.86,13.68-32.14,30.58-40.54,2.68-1.33,4.55-2.64,3.94-5.94-2-10.8-3.98-21.6-5.96-32.4-.43-2.37-1.29-3.51-3.51-1.38-12.36,11.86-25.63,22.83-35.76,36.87-10.3,14.28-16.55,29.93-16.54,49.69h0Zm59.29-140.37c18.42-16.9,32.81-34.8,36.99-59.1,1.95-11.33,2.39-22.54-2.36-33.32-4.15-9.41-11.62-10.45-18.17-2.71-3.34,3.94-6.29,8.15-8.8,12.7-7.19,13-9.67,27.19-10.61,41.73-.86,13.33,1.11,26.48,2.96,40.71h-.01Zm52.61,154.11c-.49-5.46-1-11.43-3.02-17.12-4.15-11.73-13.3-19-23.99-19.55-4.11-.21-5.69,.68-4.89,5.22,3.82,21.77,7.37,43.58,11.06,65.37,.29,1.73,.09,4.05,2.28,4.56,1.74,.41,2.97-1.23,4.17-2.36,10.27-9.65,13.56-22.13,14.4-36.12h0Z"/>
  </g>
</svg>